<svg xmlns="http://www.w3.org/2000/svg" viewBox="0 0 1200 700"><defs><linearGradient id="g" x1="0" y1="0" x2="1" y2="1"><stop stop-color="#831843"/><stop offset=".55" stop-color="#ec4899"/><stop offset="1" stop-color="#f59e0b"/></linearGradient></defs><rect width="1200" height="700" fill="url(#g)"/><circle cx="950" cy="100" r="180" fill="#fff" opacity=".1"/><circle cx="160" cy="570" r="220" fill="#7c3aed" opacity=".35"/><path d="M380 180h440a35 35 0 0 1 35 35v270a35 35 0 0 1-35 35H380a35 35 0 0 1-35-35V215a35 35 0 0 1 35-35z" fill="#fff" opacity=".92"/><path d="M460 410l100-125 70 80 65-72 100 117H460z" fill="#ec4899"/><circle cx="520" cy="260" r="35" fill="#f59e0b"/><path d="M345 225h510" stroke="#fbcfe8" stroke-width="10"/></svg>
